PathFileType	4	(X/Y/Z)	C:/Users/opensim2020/Desktop/walking_exp_matlab/subject03_walking15_straight_04.trc																																																																																																																																											
DataRate	CameraRate	NumFrames	NumMarkers	Units	OrigDataRate	OrigDataStartFrame	OrigNumFrames																																																																																																																																							
100	100	4	47	mm	100	2207	182																																																																																																																																							
Frame#	Time	LFHD			RFHD			LBHD			RBHD			C7			T10			CLAV			STRN			RBAK			LSHO			LUPA			LELB			LFRM			LWRA			LWRB			LFIN			RSHO			RUPA			RELB			RFRM			RWRA			RWRB			RFIN			LASI			RASI			LPSI			RPSI			LTHI			LKNE			LTIB			LANK			LHEE			LTOE			RTHI			RKNE			RTIB			RANK			RHEE			RTOE			*39			*40			*41			*42			*43			*44			*45			*46		
		X1	Y1	Z1	X2	Y2	Z2	X3	Y3	Z3	X4	Y4	Z4	X5	Y5	Z5	X6	Y6	Z6	X7	Y7	Z7	X8	Y8	Z8	X9	Y9	Z9	X10	Y10	Z10	X11	Y11	Z11	X12	Y12	Z12	X13	Y13	Z13	X14	Y14	Z14	X15	Y15	Z15	X16	Y16	Z16	X17	Y17	Z17	X18	Y18	Z18	X19	Y19	Z19	X20	Y20	Z20	X21	Y21	Z21	X22	Y22	Z22	X23	Y23	Z23	X24	Y24	Z24	X25	Y25	Z25	X26	Y26	Z26	X27	Y27	Z27	X28	Y28	Z28	X29	Y29	Z29	X30	Y30	Z30	X31	Y31	Z31	X32	Y32	Z32	X33	Y33	Z33	X34	Y34	Z34	X35	Y35	Z35	X36	Y36	Z36	X37	Y37	Z37	X38	Y38	Z38	X39	Y39	Z39	X40	Y40	Z40	X41	Y41	Z41	X42	Y42	Z42	X43	Y43	Z43	X44	Y44	Z44	X45	Y45	Z45	X46	Y46	Z46	X47	Y47	Z47
																																																																																																																																														
46	0.45	-517.96497	1613.35413	940.5141	-520.211	1627.86597	1072.42676	-647.12775	1573.87866	946.09589	-644.30176	1587.37805	1076.21118	-677.87872	1413.86731	1022.00079	-707.90631	1101.53296	1027.36755	-557.19434	1339.08508	1014.67853	-509.82532	1174.46521	1009.57196	-716.44611	1239.18115	1127.6593	-617.13525	1373.02051	861.5788	-636.16888	1174.19043	794.54614	-629.19983	1051.10413	782.69	-600.2749	923.83844	780.31732	-572.11603	807.94714	808.09851	-603.58588	810.50842	762.14667	-578.9104	731.36218	766.22375	-587.06354	1366.2179	1175.10229	-546.37463	1152.13293	1256.41663	-509.42258	1046.67627	1274.34033	-464.76175	917.49933	1281.95886	-419.05353	827.53076	1249.1676	-444.19067	820.31348	1295.88562	-408.1842	754.63458	1288.47803	-547.9104	936.66187	905.60297	-539.46539	941.56812	1142.10767	-708.71802	955.69745	958.81152	-700.49353	974.31201	1107.3595	-519.92902	644.25995	857.58282	-447.64798	480.70847	885.2124	-524.47913	295.57452	896.40924	-582.09247	97.71049	944.86469	-625.18042	70.2599	990.1062	-446.71481	39.0507	952.36255	-617.48181	649.35272	1186.90173	-629.50525	469.81015	1151.87036	-700.56482	290.43216	1162.45129	-767.05164	82.24152	1120.10681	-820.64331	56.99234	1076.55066	-632.47595	31.04327	1085.95557	-599.7829	1680.64075	982.66223	NaN	NaN	NaN	NaN	NaN	NaN	NaN	NaN	NaN	NaN	NaN	NaN	NaN	NaN	NaN	NaN	NaN	NaN	NaN	NaN	NaN
47	0.46	-505.52176	1612.5509	939.74548	-507.55954	1627.29272	1071.67029	-634.62976	1572.87109	945.59625	-631.55524	1586.56702	1075.6825	-665.02136	1413.09888	1021.46863	-695.82172	1100.99683	1026.45837	-544.34509	1338.24084	1014.33014	-497.3623	1173.46704	1009.27649	-703.85889	1238.66931	1127.22046	-603.71674	1372.26184	861.07245	-624.91406	1173.56262	793.73871	-620.31653	1050.34875	781.50037	-595.89325	922.17218	778.15289	-572.28491	805.03998	804.90979	-603.59875	809.15039	758.73901	-582.6015	728.69641	762.59937	-574.54474	1365.57568	1174.71765	-531.77429	1152.02332	1256.22778	-492.94861	1047.18982	1274.0387	-445.12415	919.25739	1281.45581	-396.70953	830.86096	1248.45984	-422.17438	822.5769	1294.84631	-384.24673	758.08221	1287.41296	-535.05353	935.98749	905.37048	-528.8559	940.66217	1142.14075	-696.5802	954.90552	957.61041	-689.52844	973.48889	1106.26111	-506.25714	644.25641	856.83502	-434.40878	480.85843	885.11499	-499.67242	291.00082	894.87244	-542.10132	88.87558	942.20251	-583.62543	58.28504	987.03278	-402.79047	39.47546	949.87714	-609.40143	648.8075	1186.54822	-623.51794	469.42395	1151.68506	-697.21552	291.00198	1162.14014	-766.47076	83.60915	1119.53101	-820.36102	59.1002	1075.64783	-632.36279	30.92128	1085.90466	-587.43164	1679.80835	981.96826	NaN	NaN	NaN	NaN	NaN	NaN	NaN	NaN	NaN	NaN	NaN	NaN	NaN	NaN	NaN	NaN	NaN	NaN	NaN	NaN	NaN
48	0.47	-492.99167	1611.6626	938.97943	-494.88431	1626.59045	1070.84753	-621.98096	1571.74158	945.06744	-618.80859	1585.63708	1075.09985	-652.06134	1412.21423	1020.78802	-683.69128	1100.31934	1025.30249	-531.43958	1337.32544	1013.94611	-484.90903	1172.37085	1009.00684	-691.33032	1238.06628	1126.54565	-590.11224	1371.35461	860.42261	-613.461	1172.79944	792.85944	-611.43427	1049.60266	780.21851	-591.47815	920.71027	776.00146	-573.90466	802.02686	802.35889	-603.34003	808.14844	755.41565	-586.12354	726.56696	759.18335	-561.8335	1364.58496	1174.17578	-517.37689	1151.71851	1256.00696	-477.04388	1047.73352	1274.09583	-425.89777	920.92798	1280.83313	-374.57471	834.44855	1247.63623	-400.6489	824.97736	1293.5719	-360.5712	761.70276	1286.0968	-522.10895	934.71216	905.30457	-518.06506	939.65057	1142.30237	-684.31641	954.0365	956.4024	-678.47827	972.50739	1105.05432	-493.64316	643.84094	856.36517	-422.11395	480.33258	884.87872	-475.15631	286.86322	893.23047	-502.12125	81.49213	939.48853	-541.69623	48.5885	983.95496	-359.41147	40.6563	947.88458	-601.55188	648.34631	1186.59351	-617.43451	469.00369	1151.50354	-693.83862	291.61929	1161.7749	-765.84442	85.17345	1118.89038	-819.66479	61.03626	1074.9679	-632.28894	30.90528	1085.94409	NaN	NaN	NaN	NaN	NaN	NaN	NaN	NaN	NaN	NaN	NaN	NaN	NaN	NaN	NaN	NaN	NaN	NaN	NaN	NaN	NaN	NaN	NaN	NaN
49	0.48	-480.43509	1610.79492	938.16815	-482.21149	1625.88708	1070.0437	-609.43457	1570.58105	944.45593	-605.92224	1584.55615	1074.39185	-638.98682	1411.32178	1019.95752	-671.52893	1099.61511	1024.00452	-518.39819	1336.29248	1013.47308	-472.29507	1171.16821	1008.82343	-678.89197	1237.4093	1125.66638	-576.4671	1370.36865	859.75208	-601.72058	1172.03259	791.9295	-602.46515	1048.94128	778.86877	-586.85309	919.3974	773.76898	-573.74146	799.86005	799.32831	-602.75891	807.48047	752.13104	-589.5174	724.85553	755.95258	-549.04144	1363.375	1173.6073	-503.31934	1151.31311	1255.75378	-461.47546	1048.00769	1273.92188	-407.11697	922.54999	1280.04431	-353.11502	837.92316	1246.46643	-379.29425	827.29688	1292.01318	-337.28375	765.50287	1284.41211	-509.43918	933.46942	905.41711	-507.01883	938.36841	1142.42822	-671.82257	953.00537	955.13611	-667.19373	971.41345	1103.77844	-481.52826	642.77155	855.79114	-410.86478	479.15247	884.77875	-451.17896	283.24652	891.85773	-462.27863	75.68595	936.9939	-499.18207	40.17264	980.83514	-317.19638	42.91334	945.7804	-592.83032	647.58698	1185.62354	-611.21753	468.58926	1151.28857	-690.52496	292.1991	1160.87708	-765.16449	86.67256	1118.30652	-819.10822	63.31425	1074.20337	-632.17926	30.84225	1085.89526	-562.53973	1677.65149	980.46143	NaN	NaN	NaN	NaN	NaN	NaN	NaN	NaN	NaN	NaN	NaN	NaN	NaN	NaN	NaN	NaN	NaN	NaN	NaN	NaN	NaN
